# AST/ASF file generated using VICON BodyLanguage
# -----------------------------------------------
:version 1.10
:name VICON
:units
  mass 1.0
  length 0.45
  angle deg
:documentation
   .ast/.asf automatically generated from VICON data using
   VICON BodyBuilder and BodyLanguage model FoxedUp or BRILLIANT.MOD
:root
   order TX TY TZ RX RY RZ
   axis XYZ
   position 0 0 0  
   orientation 0 0 0 
:bonedata
  begin
     id 1 
     name lhipjoint
     direction 0.646657 -0.683706 0.338203 
     length 2.4948 
     axis 0 0 0  XYZ
  end
  begin
     id 2 
     name lfemur
     direction 0.34202 -0.939693 0  
     length 6.79491  
     axis 0 0 20  XYZ
    dof rx ry rz
    limits (-160.0 20.0)
           (-70.0 70.0)
           (-60.0 70.0)
  end
  begin
     id 3 
     name ltibia
     direction 0.34202 -0.939693 0   
     length 7.56807   
     axis 0 0 20   XYZ
    dof rx
    limits (-10.0 170.0)
  end
  begin
     id 4 
     name lfoot
     direction 0.0679796 -0.186772 0.980048   
     length 2.53018   
     axis -90 7.62852e-016 20   XYZ
    dof rx rz
    limits (-45.0 90.0)
           (-70.0 20.0)
  end
  begin
     id 5 
     name ltoes
     direction 1.53625e-011 -4.21881e-011 1   
     length 1.26912   
     axis -90 7.62852e-016 20   XYZ
    dof rx
    limits (-90.0 20.0)
  end
  begin
     id 6 
     name rhipjoint
     direction -0.618868 -0.704065 0.348274   
     length 2.42265  
     axis 0 0 0  XYZ 
  end
  begin
     id 7 
     name rfemur
     direction -0.34202 -0.939693 0   
     length 6.73814   
     axis 0 0 -20   XYZ
    dof rx ry rz
    limits (-160.0 20.0)
           (-70.0 70.0)
           (-70.0 60.0)
  end
  begin
     id 8 
     name rtibia
     direction -0.34202 -0.939693 0   
     length 7.66799   
     axis 0 0 -20   XYZ
    dof rx
    limits (-10.0 170.0)
 end
 begin
     id 9 
     name rfoot
     direction -0.0727352 -0.199838 0.977125   
     length 2.57224  
     axis -90 -7.62852e-016 -20   XYZ
    dof rx rz
    limits (-45.0 90.0)
           (-20.0 70.0)
  end
  begin
     id 10 
     name rtoes
     direction -1.53501e-011 -4.21858e-011 1   
     length 1.28858   
     axis -90 -7.62852e-016 -20   XYZ
    dof rx
    limits (-90.0 20.0)
  end
  begin
     id 11 
     name lowerback
     direction -0.0172471 0.995767 -0.0902851   
     length 2.20206   
     axis 0 0 0   XYZ
    dof rx ry rz
    limits (-20.0 45.0)
           (-30.0 30.0)
           (-30.0 30.0)
  end
  begin
     id 12 
     name upperback
     direction -0.000110737 0.999714 0.0239043   
     length 2.19523   
     axis 0 0 0   XYZ
    dof rx ry rz
    limits (-20.0 45.0)
           (-30.0 30.0)
           (-30.0 30.0)
  end
  begin
     id 13 
     name thorax
     direction 0.00704869 0.997783 0.0661741   
     length 2.21977   
     axis 0 0 0   XYZ
    dof rx ry rz
    limits (-20.0 45.0)
           (-30.0 30.0)
           (-30.0 30.0)
  end
  begin
     id 14 
     name lowerneck
     direction -0.00407501 0.995527 0.0943846   
     length 1.83142   
     axis 0 0 0   XYZ
    dof rx ry rz
    limits (-20.0 45.0)
           (-30.0 30.0)
           (-30.0 30.0)
  end
  begin
     id 15 
     name upperneck
     direction 0.0640586 0.986486 -0.150807   
     length 1.84616   
     axis 0 0 0   XYZ
    dof rx ry rz
    limits (-20.0 45.0)
           (-30.0 30.0)
           (-30.0 30.0)
  end
  begin
     id 16
     name head
     direction 0.0188017 0.99791 -0.0618239  
     length 1.85932  
     axis 0 0 0   XYZ
    dof rx ry rz
    limits (-20.0 45.0)
           (-30.0 30.0)
           (-30.0 30.0)
  end
  begin
     id 17 
     name lclavicle
     direction 0.976074 0.206905 0.066852  
     length 3.81043  
     axis 0 0 0   XYZ
    dof ry rz
    limits (-20.0 10.0)
           (0.0 20.0)
  end
  begin
     id 18 
     name lhumerus
     direction 1 -4.48971e-011 1.86916e-027   
     length 5.37587   
     axis 180 -30 -90   XYZ
    dof rx ry rz
    limits (-60.0 90.0)
           (-90.0 90.0)
           (-90.0 90.0)
  end
  begin
     id 19
     name lradius
     direction 1 -4.48968e-011 1.69187e-027   
     length 3.35977   
     axis 180 -30 -90   XYZ
    dof rx
    limits (-10.0 170.0)
  end
  begin
     id 20
     name lwrist
     direction 1 -4.48968e-011 5.8978e-027   
     length 1.67988   
     axis -3.27506e-015 90 90   XYZ
    dof ry
    limits (-180.0 0.0)
 end
  begin
     id 21 
     name lhand
     direction 1 -4.49028e-011 1.18071e-026   
     length 0.561859   
     axis -7.52654e-015 90 90   XYZ
    dof rx rz
    limits (-90.0 90.0)
           (-45.0 45.0)
  end
  begin
     id 22 
     name lfingers
     direction 1 -4.48927e-011 2.35758e-026   
     length 0.452985   
     axis -1.50534e-014 90 90   XYZ
    dof rx
    limits (0.0 90.0)
  end
  begin
     id 23
     name lthumb
     direction 0.707107 -6.34898e-011 0.707107   
     length 0.650399   
     axis -90 45 5.69224e-014   XYZ
    dof rx rz
    limits (-45.0 45.0)
           (-45.0 45.0)
  end
  begin
     id 24 
     name rclavicle
     direction -0.988403 0.151789 0.00439714   
     length 3.6942  
     axis 0 0 0   XYZ 
    dof ry rz
    limits (-10.0 20.0)
           (-20.0 0.0)
  end
  begin
     id 25 
     name rhumerus
     direction -1 -4.48978e-011 1.62495e-027  
     length 5.22819   
     axis 180 30 90   XYZ
    dof rx ry rz
    limits (-90.0 60.0)
           (-90.0 90.0)
           (-90.0 90.0)
  end
  begin
     id 26 
     name rradius
     direction -1 -4.48961e-011 3.47796e-027   
     length 3.40764   
     axis 180 30 90   XYZ
    dof rx
    limits (-10.0 170.0)
  end
  begin
     id 27 
     name rwrist
     direction -1 -4.48949e-011 5.89602e-027   
     length 1.70382   
     axis -3.27506e-015 -90 -90   XYZ
    dof ry
    limits (-180.0 0.0)
  end
  begin
     id 28
     name rhand
     direction -1 -4.48977e-011 1.17973e-026   
     length 0.583255   
     axis -7.52654e-015 -90 -90   XYZ
    dof rx rz
    limits (-90.0 90.0)
           (-45.0 45.0)
  end
  begin
     id 29
     name rfingers
     direction -1 -4.49099e-011 2.36408e-026   
     length 0.470235   
     axis -1.50534e-014 -90 -90   XYZ
    dof rx
    limits (0.0 90.0)
  end
  begin
     id 30
     name rthumb
     direction -0.707107 -6.35011e-011 0.707107   
     length 0.675167   
     axis -90 -45 -5.69224e-014   XYZ
    dof rx rz
    limits (-45.0 45.0)
           (-45.0 45.0)
  end
:hierarchy
  begin
    root lhipjoint rhipjoint lowerback
    lhipjoint lfemur
    lfemur ltibia
    ltibia lfoot
    lfoot ltoes
    rhipjoint rfemur
    rfemur rtibia
    rtibia rfoot
    rfoot rtoes
    lowerback upperback
    upperback thorax
    thorax lowerneck lclavicle rclavicle
    lowerneck upperneck
    upperneck head
    lclavicle lhumerus
    lhumerus lradius
    lradius lwrist
    lwrist lhand lthumb
    lhand lfingers
    rclavicle rhumerus
    rhumerus rradius
    rradius rwrist
    rwrist rhand rthumb
    rhand rfingers
  end

#!OML:ASF G:\JayActor3\Patient Classification 1\Patient 1\Session 2\male.ASF
:FULLY-SPECIFIED
:DEGREES
917
root -21.6272 16.9362 -6.958 570.692 -267.015 -148.389
lowerback 0.895837 -0.588994 -0.0229599
upperback 5.82614 -0.680308 0.391619
thorax 5.52545 -0.297125 0.396911
lowerneck -2.93155 -4.35575 -1.81313
upperneck 34.7035 -5.17064 2.66111
head 11.9863 -1.66895 0.897464
rclavicle -5.96354e-016 -2.38542e-015
rhumerus 0.523479 5.86033 -12.6563
rradius 127
rwrist -22.8261
rhand -4.38004 11.9462
rfingers 7.12502
rthumb 21.389 -16.8933
lclavicle -5.96354e-016 -2.38542e-015
lhumerus 7.43503 10.9945 19.9348
lradius 129.687
lwrist 56.0478
lhand -10.1661 16.737
lfingers 7.12502
lthumb 15.8237 46.1103
rfemur -38.1339 -4.57941 18.4103
rtibia 89.4735
rfoot -15.2597 -4.06501
rtoes -1.55714
lfemur -0.519219 4.05631 -24.669
ltibia 21.3522
lfoot -12.9645 6.27662
ltoes -9.28324
918
root -21.4685 16.9389 -6.97184 573.572 -266.542 -145.67
lowerback 0.963167 -0.661258 -0.427798
upperback 5.85944 -0.768102 0.4265
thorax 5.52962 -0.361049 0.656659
lowerneck -2.83171 -4.34689 -1.61158
upperneck 34.5862 -5.09921 2.33648
head 11.8973 -1.65727 0.747286
rclavicle 1.21259e-014 1.59028e-015
rhumerus -0.0925362 5.61773 -15.7752
rradius 126.99
rwrist -22.2422
rhand -4.08399 11.843
rfingers 7.12502
rthumb 21.6733 -16.9639
lclavicle 1.21259e-014 1.59028e-015
lhumerus 7.06781 10.7531 21.7659
lradius 130.757
lwrist 56.5436
lhand -9.98693 16.9857
lfingers 7.12502
lthumb 15.9962 46.3452
rfemur -39.8427 -3.98305 18.1035
rtibia 88.4069
rfoot -16.0327 -4.23573
rtoes -1.6519
lfemur 0.298294 4.82359 -25.1879
ltibia 20.6285
lfoot -12.9774 6.69423
ltoes -9.66691
919
root -21.308 16.9352 -6.98658 575.879 -265.996 -143.499
lowerback 1.02551 -0.718275 -0.844956
upperback 5.90003 -0.834036 0.429226
thorax 5.54535 -0.413947 0.890861
lowerneck -2.76923 -4.33601 -1.41982
upperneck 34.5156 -5.01845 1.99949
head 11.8356 -1.64207 0.595422
rclavicle -6.85807e-015 -7.95139e-016
rhumerus -0.69751 5.36812 -19.1301
rradius 126.892
rwrist -21.8469
rhand -3.812 11.8675
rfingers 7.12502
rthumb 21.9345 -16.909
lclavicle -6.85807e-015 -7.95139e-016
lhumerus 6.64674 10.5028 23.7993
lradius 131.778
lwrist 57.2355
lhand -9.7181 16.9603
lfingers 7.12502
lthumb 16.2551 46.2989
rfemur -41.3802 -3.29616 17.6724
rtibia 87.033
rfoot -16.7512 -4.32045
rtoes -1.81585
lfemur 1.13821 5.59135 -25.7491
ltibia 19.93
lfoot -13.0041 7.10936
ltoes -10.1801
920
root -21.1461 16.9256 -7.00196 577.792 -265.397 -141.692
lowerback 1.08836 -0.760179 -1.26781
upperback 5.94659 -0.87834 0.400524
thorax 5.56746 -0.455639 1.09655
lowerneck -2.74461 -4.32941 -1.24428
upperneck 34.4873 -4.94255 1.66957
head 11.8005 -1.62845 0.44846
rclavicle -5.96354e-016 -3.97569e-016
rhumerus -1.31523 5.11315 -22.7306
rradius 126.676
rwrist -21.9401
rhand -3.52103 12.0148
rfingers 7.12502
rthumb 22.2138 -16.7287
lclavicle -5.96354e-016 -3.97569e-016
lhumerus 6.17443 10.1951 26.0569
lradius 132.679
lwrist 58.1595
lhand -9.24109 16.5736
lfingers 7.12502
lthumb 16.7144 45.874
rfemur -42.7396 -2.54513 17.1162
rtibia 85.3545
rfoot -17.3793 -4.30517
rtoes -2.06934
lfemur 2.00647 6.32521 -26.3454
ltibia 19.2384
lfoot -13.0329 7.51584
ltoes -10.7393
921
root -20.982 16.9109 -7.01694 579.63 -264.794 -139.915
lowerback 1.152 -0.797154 -1.69239
upperback 6.00684 -0.914383 0.345183
thorax 5.60398 -0.492677 1.27587
lowerneck -2.75696 -4.33207 -1.09676
upperneck 34.499 -4.88599 1.37698
head 11.7924 -1.621 0.318005
rclavicle -1.38155e-014 3.97569e-015
rhumerus -1.96701 4.85009 -26.5692
rradius 126.304
rwrist -22.8788
rhand -3.15563 12.239
rfingers 7.12502
rthumb 22.5646 -16.4623
lclavicle -1.38155e-014 3.97569e-015
lhumerus 5.66478 9.78163 28.5643
lradius 133.347
lwrist 59.4469
lhand -8.35609 15.789
lfingers 7.12502
lthumb 17.5662 45.0154
rfemur -43.877 -1.77425 16.4438
rtibia 83.3725
rfoot -17.8974 -4.16167
rtoes -2.28754
lfemur 2.9319 7.00778 -26.9498
ltibia 18.5378
lfoot -13.0673 7.85938
ltoes -11.2611
922
root -20.8162 16.8917 -7.03119 581.379 -264.209 -138.186
lowerback 1.20971 -0.831278 -2.10319
upperback 6.07674 -0.945389 0.267982
thorax 5.65416 -0.526149 1.42483
lowerneck -2.80979 -4.34528 -0.971181
upperneck 34.5542 -4.85212 1.12445
head 11.8129 -1.62008 0.203337
rclavicle -1.14301e-014 -1.11319e-014
rhumerus -2.65503 4.5838 -30.6208
rradius 125.728
rwrist -25.0674
rhand -2.62317 12.4725
rfingers 7.12502
rthumb 23.0756 -16.1658
lclavicle -1.14301e-014 -1.11319e-014
lhumerus 5.11253 9.21908 31.3269
lradius 133.658
lwrist 61.3318
lhand -6.76443 14.6815
lfingers 7.12502
lthumb 19.0974 43.7639
rfemur -44.7934 -0.99453 15.6742
rtibia 81.0917
rfoot -18.2851 -3.91703
rtoes -2.59226
lfemur 3.90802 7.62236 -27.5416
ltibia 17.8209
lfoot -13.0962 8.12721
ltoes -11.7332
923
root -20.6484 16.8689 -7.0442 583.029 -263.671 -136.521
lowerback 1.2514 -0.868881 -2.48488
upperback 6.15481 -0.98022 0.178531
thorax 5.72228 -0.5601 1.54428
lowerneck -2.89376 -4.36748 -0.87039
upperneck 34.6401 -4.84049 0.917719
head 11.8553 -1.6257 0.107117
rclavicle -1.56046e-014 7.15625e-015
rhumerus -3.36748 4.3234 -34.8348
rradius 124.905
rwrist -28.8665
rhand -1.78269 12.6065
rfingers 7.12502
rthumb 23.8818 -15.9287
lclavicle -1.56046e-014 7.15625e-015
lhumerus 4.50717 8.45244 34.3212
lradius 133.45
lwrist 64.0587
lhand -4.24117 13.351
lfingers 7.12502
lthumb 21.5224 42.1752
rfemur -45.4858 -0.202807 14.8319
rtibia 78.5238
rfoot -18.5331 -3.59474
rtoes -2.96394
lfemur 4.94021 8.1681 -28.0879
ltibia 17.078
lfoot -13.107 8.29382
ltoes -12.1854
924
root -20.4791 16.8429 -7.0557 584.608 -263.196 -134.903
lowerback 1.25781 -0.912489 -2.82755
upperback 6.23969 -1.02207 0.0831241
thorax 5.8179 -0.596029 1.63473
lowerneck -3.0207 -4.39257 -0.772794
upperneck 34.7565 -4.84092 0.739971
head 11.9203 -1.6326 0.0199372
rclavicle -9.93923e-015 2.42517e-014
rhumerus -4.09511 4.07804 -39.1324
rradius 123.785
rwrist -34.4715
rhand -0.586324 12.4509
rfingers 7.12502
rthumb 25.0287 -15.9293
lclavicle -9.93923e-015 2.42517e-014
lhumerus 3.85637 7.44855 37.4989
lradius 132.639
lwrist 67.8796
lhand -0.807627 12.407
lfingers 7.12502
lthumb 24.8166 40.8167
rfemur -45.9652 0.611981 13.9311
rtibia 75.6923
rfoot -18.6609 -3.21949
rtoes -3.35569
lfemur 6.02121 8.64258 -28.5712
ltibia 16.3049
lfoot -13.09 8.3448
ltoes -12.6716
925
root -20.3085 16.8138 -7.06544 586.114 -262.793 -133.346
lowerback 1.21954 -0.962512 -3.1274
upperback 6.32426 -1.07187 -0.00686368
thorax 5.93898 -0.634654 1.70561
lowerneck -3.19983 -4.4102 -0.657968
upperneck 34.899 -4.8348 0.566719
head 12.0065 -1.63282 -0.0693135
rclavicle 3.35946e-014 3.97569e-015
rhumerus -4.82579 3.84402 -43.4031
rradius 122.306
rwrist -41.8005
rhand 0.944832 11.7473
rfingers 7.12502
rthumb 26.495 -16.4203
lclavicle 3.35946e-014 3.97569e-015
lhumerus 3.1717 6.17366 40.7884
lradius 131.125
lwrist 72.746
lhand 3.25151 12.4631
lfingers 7.12502
lthumb 28.7009 40.2779
rfemur -46.25 1.47408 12.9834
rtibia 72.6286
rfoot -18.7011 -2.83519
rtoes -3.75136
lfemur 7.1509 9.05073 -28.9749
ltibia 15.4862
lfoot -13.0476 8.27011
ltoes -13.1877
926
root -20.137 16.7815 -7.07322 587.579 -262.47 -131.832
lowerback 1.12797 -1.01627 -3.38484
upperback 6.40107 -1.1266 -0.0784086
thorax 6.08262 -0.674961 1.77064
lowerneck -3.44811 -4.40462 -0.503397
upperneck 35.0556 -4.79662 0.372519
head 12.1108 -1.61552 -0.171877
rclavicle 3.11098e-014 3.18055e-015
rhumerus -5.54078 3.60463 -47.5229
rradius 120.364
rwrist -50.3285
rhand 2.56531 10.305
rfingers 7.12502
rthumb 28.0451 -17.6189
lclavicle 3.11098e-014 3.18055e-015
lhumerus 2.48228 4.58984 44.0982
lradius 128.821
lwrist 78.1738
lhand 7.24438 13.9181
lfingers 7.12502
lthumb 32.5083 41.0208
rfemur -46.3693 2.40413 11.9941
rtibia 69.38
rfoot -18.6926 -2.49215
rtoes -4.14861
lfemur 8.32142 9.37339 -29.2959
ltibia 14.6115
lfoot -12.9796 8.09058
ltoes -13.7847
927
root -19.9641 16.7456 -7.07874 589.13 -262.231 -130.236
lowerback 0.985201 -1.06774 -3.60889
upperback 6.45906 -1.17902 -0.123524
thorax 6.23578 -0.713928 1.84353
lowerneck -3.77146 -4.36121 -0.286538
upperneck 35.2102 -4.70716 0.147779
head 12.227 -1.57085 -0.293305
rclavicle -8.15017e-015 -5.56597e-015
rhumerus -6.23579 3.39518 -51.3661
rradius 117.795
rwrist -58.8957
rhand 3.61722 8.19923
rfingers 7.12502
rthumb 29.0502 -19.5559
lclavicle -8.15017e-015 -5.56597e-015
lhumerus 1.83505 2.61584 47.3392
lradius 125.676
lwrist 83.2707
lhand 10.1104 16.573
lfingers 7.12502
lthumb 35.231 43.0748
rfemur -46.3406 3.40855 10.9571
rtibia 66.01
rfoot -18.6955 -2.22401
rtoes -4.50561
lfemur 9.54521 9.6113 -29.5358
ltibia 13.659
lfoot -12.8848 7.81095
ltoes -14.508
